PathFileType	4	(X/Y/Z)	/Users/visionmauri/1_9_1_f_Sports2D/1_9_1_f_Sports2D_m_person00.trc
DataRate	CameraRate	NumFrames	NumMarkers	Units	OrigDataRate	OrigDataStartFrame	OrigNumFrames
30.0	30.0	11	22	m	30.0	130	349
Frame#	Time	Hip			RHip			RKnee			RAnkle			RBigToe			RSmallToe			RHeel			LHip			LKnee			LAnkle			LBigToe			LSmallToe			LHeel			Neck			Head			Nose			RShoulder			RElbow			RWrist			LShoulder			LElbow			LWrist			
		X1	Y1	Z1	X2	Y2	Z2	X3	Y3	Z3	X4	Y4	Z4	X5	Y5	Z5	X6	Y6	Z6	X7	Y7	Z7	X8	Y8	Z8	X9	Y9	Z9	X10	Y10	Z10	X11	Y11	Z11	X12	Y12	Z12	X13	Y13	Z13	X14	Y14	Z14	X15	Y15	Z15	X16	Y16	Z16	X17	Y17	Z17	X18	Y18	Z18	X19	Y19	Z19	X20	Y20	Z20	X21	Y21	Z21	X22	Y22	Z22
130	4.345785440613026	0.7530861110209849	0.7146660107427518	0.0301	0.8287355772423575	0.7674669251984243	0.0301	1.0741899296376554	0.4812935555206853	0.129	1.2994910270636897	0.23613797880579382	0.023	1.2929642537422001	0.1738291003770013	0.2179	1.3467861621852797	0.20788935436629244	0.1804	1.3351507830599556	0.18398876586724447	-0.0119	0.6960483793228857	0.6510934152721732	0.0301	0.9195507646675513	0.4142184933644264	0.129	0.9660554210407355	0.3851836789234345	0.023	1.2290913409590039	0.08982030987477432	0.2179	1.1883209998767346	0.06669593222440784	0.1804	0.9546086708160505	0.4052035073179111	-0.0119	0.42410852445187514	1.0327685821922632	0.0008	0.27895533132883515	1.1260287956456763	0.0655	0.3429991059572005	1.0493757840035753	0.1076	0.5669028211094761	1.1222440501870612	-0.01275	0.8014947724661017	1.03729063807414	0.0702	0.9605738902874622	0.892504311092337	0.1076	0.34240220219167705	0.8917465647027418	-0.01275	0.4583000131521413	0.6668783379790756	0.0702	0.47887559210057196	0.6355086047835907	0.1076
131	4.379214559386973	0.7539033117080738	0.7166823156455592	0.0301	0.8307393240723511	0.7695873186963115	0.0301	1.0732776212636366	0.47738254144339326	0.129	1.2977471455817138	0.23229495788494814	0.023	1.2879681359417023	0.16863064998156663	0.2179	1.3445755716149115	0.20642791760192017	0.1804	1.3314813387567963	0.18361438016441164	-0.0119	0.6977220081804683	0.6531499015838803	0.0301	0.9162903840024922	0.41763973164409907	0.129	0.9460127061417527	0.40619319483722643	0.023	1.2138297732515035	0.09843539386642496	0.2179	1.1173697955363096	0.14389844889913966	0.1804	0.9298137473035776	0.43560739868353304	-0.0119	0.4275832478901381	1.0346669665628763	0.0008	0.27826994532351745	1.124931252221604	0.0655	0.3427734527842976	1.0465947579876704	0.1076	0.5694263332908339	1.123433414634017	-0.01275	0.8004382084042315	1.0447648445836082	0.0702	0.9599686966435632	0.8958460963481513	0.1076	0.3473833906691463	0.8945772811958109	-0.01275	0.4640041816122466	0.6671984666881964	0.0702	0.48899776103260817	0.6348197973068547	0.1076
132	4.4126436781609195	0.7560471232179556	0.7172611749069784	0.0301	0.8324687925712815	0.7722201818622085	0.0301	1.0728878361000291	0.4745696576759792	0.129	1.297252642147728	0.22915549433666393	0.023	1.2904760896772978	0.16711094520384442	0.2179	1.3446976676797087	0.20446563134083864	0.1804	1.328342177124613	0.18374725012179785	-0.0119	0.7012007669959086	0.6542646298420003	0.0301	0.917033624528317	0.41891759670925893	0.129	0.9405164050003076	0.41060283936943076	0.023	1.195684384883755	0.10860282085119058	0.2179	1.02571571499248	0.24396102918496096	0.1804	0.9214295015706087	0.4465142706724137	-0.0119	0.4315719174228344	1.0374100415037428	0.0008	0.27923683615771644	1.1246414004198633	0.0655	0.34383697975728844	1.0449502031671802	0.1076	0.5731668031782038	1.1247142563521733	-0.01275	0.801630973761953	1.053681607053628	0.0702	0.9604986492006852	0.8985253219087572	0.1076	0.3529213691559255	0.8993727684630479	-0.01275	0.4687170555703663	0.6706052279839682	0.0702	0.4991838748218742	0.6338040263425803	0.1076
133	4.446072796934866	0.7581571769766929	0.7197448814781267	0.0301	0.8343370907292743	0.7765736097429214	0.0301	1.0744161701401969	0.4739379808044849	0.129	1.2975025088391945	0.2276242496944615	0.023	1.2945577741867451	0.16962073410366665	0.2179	1.3442660286202712	0.20288474385996477	0.1804	1.3266394015111018	0.1853870357444063	-0.0119	0.7032993369414093	0.6575637229057615	0.0301	0.9164905620035171	0.42271418805091243	0.129	0.9241703876148778	0.4285500890688113	0.023	1.1828508151220662	0.12228403061838866	0.2179	0.9626977205559669	0.31353148001828685	0.1804	0.8989072100684151	0.4725567432991331	-0.0119	0.4354307038699491	1.0408155986850212	0.0008	0.2819954618596703	1.1258612759384157	0.0655	0.3450708168034412	1.0442772159911564	0.1076	0.5777683148454107	1.1253951090969438	-0.01275	0.8051433334619664	1.0628648075370477	0.0702	0.9626220274263646	0.8989328180321636	0.1076	0.3581619209266508	0.9066167503612211	-0.01275	0.47344109401727485	0.6774541038961388	0.0702	0.5023702863441484	0.641208248279244	0.1076
134	4.479501915708812	0.7601512780868626	0.7233220304742689	0.0301	0.8364896334798367	0.7806933797110415	0.0301	1.0765829607633695	0.4751330422560366	0.129	1.2977743730361242	0.22777732509649928	0.023	1.2969450239450824	0.17129680967989028	0.2179	1.3442673849350162	0.201639844968565	0.1804	1.3260121575377783	0.1871658601372262	-0.0119	0.7037519407504725	0.6617679890823036	0.0301	0.9155628783258827	0.4263000719528868	0.129	0.9081900255265404	0.4482998714791552	0.023	1.1802144859842802	0.13070851540995662	0.2179	0.9662854120574672	0.3117188583930903	0.1804	0.8779694199553564	0.49832385238141136	-0.0119	0.4390066945966542	1.0440945509245105	0.0008	0.28357128661479797	1.1271682599991932	0.0655	0.3455190426044382	1.0428750809315506	0.1076	0.5815077828679561	1.1260384275517734	-0.01275	0.8088106340301473	1.0717946015721387	0.0702	0.9646035258967789	0.9004301805259476	0.1076	0.3625836636689686	0.9142758916495725	-0.01275	0.4780068594284642	0.6871773383379756	0.0702	0.50073329854263	0.6550553126265636	0.1076
135	4.512931034482759	0.7631777368307133	0.7251586057656773	0.0301	0.8393385843387356	0.7814465108231021	0.0301	1.0778231243437266	0.47684063493722284	0.129	1.2983748356302292	0.22846644051671272	0.023	1.298184815345107	0.1713531965297116	0.2179	1.345561645147981	0.2011274110103145	0.1804	1.326188777562168	0.18769784625273195	-0.0119	0.7053209492632427	0.663799801206875	0.0301	0.9174427566011039	0.42592630599230297	0.129	0.9085928867356645	0.45012563249657467	0.023	1.181010440859387	0.12976731352821397	0.2179	1.0378005210856653	0.2366179505712356	0.1804	0.8787843714599883	0.5011708088047541	-0.0119	0.4423726962238732	1.0469536500421506	0.0008	0.2818666867888807	1.1259250061092474	0.0655	0.3454753862914607	1.0384765749357245	0.1076	0.583334454768986	1.1277905029582198	-0.01275	0.8103000782898495	1.0815361057630564	0.0702	0.9649407971361992	0.9061813285428121	0.1076	0.3668431305844457	0.9206047732270708	-0.01275	0.4814920426469231	0.6995045400185183	0.0702	0.5014609039627589	0.6668497262701031	0.1076
136	4.546360153256705	0.7672275160740852	0.7253384276154137	0.0301	0.8423808078427204	0.7792892927366549	0.0301	1.0784035908048744	0.47892525928786306	0.129	1.299601244667475	0.22878932604054117	0.023	1.2990085805371587	0.17148956389231057	0.2179	1.347083909730999	0.20136654559136177	0.1804	1.3274375525800592	0.18812932805837188	-0.0119	0.7093090651512233	0.6648332937393413	0.0301	0.9192015430794876	0.4247305988699269	0.129	0.9206922861259538	0.4378616961615149	0.023	1.1793743496496472	0.12727190169777167	0.2179	1.1268956328829516	0.14171792710301953	0.1804	0.8937608517410993	0.4868636401925994	-0.0119	0.4452423661295991	1.0498951949518436	0.0008	0.2786010171615546	1.1222767537793648	0.0655	0.345946019531178	1.0323960541347683	0.1076	0.5843744678776553	1.130739897592579	-0.01275	0.8088740183197051	1.0928178356713947	0.0702	0.9634196544594592	0.915882416976257	0.1076	0.371710374103318	0.9263551407278519	-0.01275	0.485269814954272	0.711113647779244	0.0702	0.5061355178546126	0.6742790223691878	0.1076
137	4.579789272030651	0.7713014176679669	0.7262140467379049	0.0301	0.8444637626965489	0.7775775612891339	0.0301	1.0794969006562762	0.48120363367050256	0.129	1.3008678534649851	0.22939842371965305	0.023	1.2982051002015667	0.17082093721373523	0.2179	1.3460391964188094	0.20053092723333035	0.1804	1.329406532012635	0.19038230935877065	-0.0119	0.7142912830989647	0.6682093709499344	0.0301	0.9143372358702849	0.42843798904787916	0.129	0.9310541042382174	0.4269628114512952	0.023	1.1783405950389971	0.1283047111205665	0.2179	1.1710808653667826	0.09498875091373528	0.1804	0.90353987369821	0.47549058337576794	-0.0119	0.446899696794913	1.0531825194230702	0.0008	0.2759435901331916	1.119112694786153	0.0655	0.3473160772092127	1.0291347826337305	0.1076	0.5857476183105819	1.1340661997577883	-0.01275	0.8068918389892855	1.1041317508039816	0.0702	0.9610695118174583	0.926916242738802	0.1076	0.3765337300782207	0.9330929441865892	-0.01275	0.4916701911207524	0.7184911761163834	0.0702	0.5108984475163523	0.681825704673053	0.1076
138	4.613218390804597	0.7746185719476996	0.7295094463928303	0.0301	0.8463346403766832	0.7781655491349414	0.0301	1.0810479188862587	0.4828978269969044	0.129	1.3014799739331246	0.23095297577452428	0.023	1.294054128651574	0.1669624670368649	0.2179	1.3409446511431857	0.1973852791302564	0.1804	1.3316946420929565	0.19333558174674326	-0.0119	0.7190270986776152	0.6738046763353397	0.0301	0.9023740173635741	0.4358400612052993	0.129	0.9339157620204848	0.4233542056318286	0.023	1.1840199629285135	0.12430391828981231	0.2179	1.1724652823595643	0.09500233735638984	0.1804	0.9009905526098794	0.47561357679114385	-0.0119	0.44810728404051664	1.0563993684914958	0.0008	0.27365701950209687	1.1164780050881378	0.0655	0.349595851916314	1.0297383803849227	0.1076	0.5873222498904196	1.1372076213186892	-0.01275	0.8077241014120927	1.1137129501515541	0.0702	0.9593128058421001	0.9364584682236247	0.1076	0.38017080293156086	0.9411917465063835	-0.01275	0.4991968951729516	0.7250974706361629	0.0702	0.5135858055979919	0.6930716964227694	0.1076
139	4.6466475095785436	0.7770394068466147	0.7345756881791318	0.0301	0.8497151726110563	0.7799825458288084	0.0301	1.082083154680601	0.48460068082716135	0.129	1.3018040451425221	0.2323179623500276	0.023	1.288738303818862	0.1603367024696272	0.2179	1.335646749757747	0.1933841619511117	0.1804	1.3350357791779142	0.194142235441355	-0.0119	0.7235854295400439	0.679082046333426	0.0301	0.8893599817169991	0.44087996611144853	0.129	0.9287366968941981	0.4266274165813623	0.023	1.2008381005303341	0.10478150631828925	0.2179	1.176025302517449	0.09378468183359302	0.1804	0.8913323466122787	0.4829750560060603	-0.0119	0.45060099706057044	1.059076160914355	0.0008	0.27145822309755324	1.1114450632502952	0.0655	0.35295555528494843	1.0308617004395708	0.1076	0.5894624157554306	1.1397078646266205	-0.01275	0.8118629543349928	1.1214159003628197	0.0702	0.9574629078357415	0.9430379194715711	0.1076	0.38294898816621864	0.9502126692807723	-0.01275	0.5042000753157179	0.735923877295621	0.0702	0.5159687899505737	0.7060496852981829	0.1076
140	4.680076628352491	0.7791156229739213	0.7393752715730842	0.0301	0.854261623689398	0.7814109675023715	0.0301	1.0828525691917688	0.48734558305407294	0.129	1.302785938724846	0.23201901302787778	0.023	1.2866354689343515	0.15387193748303285	0.2179	1.333709125572839	0.18851162187419918	0.1804	1.3391066202159545	0.19334019239715006	-0.0119	0.7277770455984528	0.6836604339972026	0.0301	0.8791780443266146	0.4413755548438522	0.129	0.9138793772016842	0.4382241332608719	0.023	1.2179862527861167	0.08587641567498938	0.2179	1.1894979413872302	0.08705099901040307	0.1804	0.8803079596742056	0.4923076582701547	-0.0119	0.45387464446076903	1.0616227786255399	0.0008	0.2701694009259004	1.1047406229850947	0.0655	0.3567066059120793	1.030753699740661	0.1076	0.5928260738923925	1.1413630435591169	-0.01275	0.8169642285475679	1.1271876436826218	0.0702	0.9525856809163489	0.9469935533798581	0.1076	0.3858707188500991	0.9595645314851632	-0.01275	0.5068258557342369	0.7487504117132274	0.0702	0.5200248820197216	0.7168612013261242	0.1076
